<svg width="16" height="16" viewBox="0 0 16 16" fill="none" xmlns="http://www.w3.org/2000/svg">
<g clip-path="url(#clip0_32_583)">
<path d="M2.00016 2H14.0002C14.177 2 14.3465 2.07024 14.4716 2.19526C14.5966 2.32029 14.6668 2.48986 14.6668 2.66667V13.3333C14.6668 13.5101 14.5966 13.6797 14.4716 13.8047C14.3465 13.9298 14.177 14 14.0002 14H2.00016C1.82335 14 1.65378 13.9298 1.52876 13.8047C1.40373 13.6797 1.3335 13.5101 1.3335 13.3333V2.66667C1.3335 2.48986 1.40373 2.32029 1.52876 2.19526C1.65378 2.07024 1.82335 2 2.00016 2ZM8.04016 7.78867L3.7655 4.15867L2.90216 5.17467L8.04883 9.54467L13.1028 5.17133L12.2308 4.16267L8.04083 7.78867H8.04016Z" fill="#FF7129"/>
</g>
<defs>
<clipPath id="clip0_32_583">
<rect width="16" height="16" fill="white"/>
</clipPath>
</defs>
</svg>
