<svg width="12" height="12" viewBox="0 0 12 12" fill="none" xmlns="http://www.w3.org/2000/svg">
<path d="M0.749837 0.75H11.2498C11.4045 0.75 11.5529 0.811458 11.6623 0.920854C11.7717 1.03025 11.8332 1.17862 11.8332 1.33333V10.6667C11.8332 10.8214 11.7717 10.9697 11.6623 11.0791C11.5529 11.1885 11.4045 11.25 11.2498 11.25H0.749837C0.595128 11.25 0.446754 11.1885 0.337358 11.0791C0.227962 10.9697 0.166504 10.8214 0.166504 10.6667V1.33333C0.166504 1.17862 0.227962 1.03025 0.337358 0.920854C0.446754 0.811458 0.595128 0.75 0.749837 0.75ZM6.03484 5.81508L2.2945 2.63883L1.53909 3.52783L6.04242 7.35158L10.4647 3.52492L9.70167 2.64233L6.03542 5.81508H6.03484Z" fill="#FF7129"/>
</svg>
